<?xml version="1.0" encoding="utf-8"?>
<!-- Generator: Adobe Illustrator 21.1.0, SVG Export Plug-In . SVG Version: 6.00 Build 0)  -->
<svg version="1.1" id="Layer_1" xmlns="http://www.w3.org/2000/svg" xmlns:xlink="http://www.w3.org/1999/xlink" x="0px" y="0px"
	 viewBox="0 0 63 63" style="enable-background:new 0 0 63 63;" xml:space="preserve">
<style type="text/css">
	.st0{fill:#FFFFFF;}
</style>
<g>
	<path class="st0" d="M31.5,62.5c17.1,0,31-13.9,31-31s-13.9-31-31-31s-31,13.9-31,31S14.4,62.5,31.5,62.5 M31.5,59.5
		c-15.5,0-28-12.5-28-28s12.5-28,28-28s28,12.5,28,28S47,59.5,31.5,59.5 M24.8,46.5c-1.4,0.9-2.5,0.2-2.5-1.4V18.2
		c0-1.7,1.1-2.3,2.5-1.4L46,30.1c1.4,0.9,1.4,2.3,0,3.2L24.8,46.5"/>
</g>
</svg>
